<svg width="20" height="20" viewBox="0 0 20 20" fill="none" xmlns="http://www.w3.org/2000/svg">
<path d="M16.0675 9.19219C16.0095 9.2503 15.9406 9.2964 15.8647 9.32785C15.7888 9.35931 15.7075 9.37549 15.6253 9.37549C15.5432 9.37549 15.4619 9.35931 15.386 9.32785C15.3101 9.2964 15.2412 9.2503 15.1832 9.19219L10.6253 4.6336V16.875C10.6253 17.0408 10.5595 17.1997 10.4423 17.3169C10.3251 17.4342 10.1661 17.5 10.0003 17.5C9.83459 17.5 9.67562 17.4342 9.55841 17.3169C9.4412 17.1997 9.37535 17.0408 9.37535 16.875V4.6336L4.81753 9.19219C4.70026 9.30947 4.5412 9.37535 4.37535 9.37535C4.2095 9.37535 4.05044 9.30947 3.93316 9.19219C3.81588 9.07492 3.75 8.91586 3.75 8.75C3.75 8.58415 3.81588 8.42509 3.93316 8.30782L9.55816 2.68282C9.61621 2.62471 9.68514 2.57861 9.76101 2.54715C9.83688 2.5157 9.91821 2.49951 10.0003 2.49951C10.0825 2.49951 10.1638 2.5157 10.2397 2.54715C10.3156 2.57861 10.3845 2.62471 10.4425 2.68282L16.0675 8.30782C16.1256 8.36586 16.1717 8.43479 16.2032 8.51067C16.2347 8.58654 16.2508 8.66787 16.2508 8.75C16.2508 8.83214 16.2347 8.91347 16.2032 8.98934C16.1717 9.06522 16.1256 9.13415 16.0675 9.19219Z" fill="#067F42"/>
</svg>
