<svg width="32" height="32" viewBox="0 0 32 32" fill="none" xmlns="http://www.w3.org/2000/svg">
<rect width="32" height="32" rx="16" fill="#D1EFF3"/>
<path d="M13.3751 14.6653C13.4892 14.5995 13.5839 14.5048 13.6497 14.3907C13.7155 14.2767 13.7502 14.1473 13.7501 14.0156V7.26562C13.7495 7.14605 13.7202 7.02837 13.6648 6.9224C13.6094 6.81643 13.5295 6.72523 13.4317 6.65643C13.3339 6.58762 13.2211 6.5432 13.1026 6.52686C12.9842 6.51052 12.8635 6.52274 12.7508 6.5625C10.5617 7.33726 8.72075 8.86748 7.5589 10.8781C6.39706 12.8887 5.9905 15.2477 6.41232 17.5312C6.43419 17.6493 6.48409 17.7604 6.55783 17.8552C6.63157 17.95 6.72699 18.0257 6.83607 18.0759C6.93438 18.1219 7.04162 18.1456 7.15014 18.1453C7.28177 18.1454 7.41111 18.1108 7.52514 18.045L13.3751 14.6653ZM12.2501 8.40188V13.5825L7.76139 16.1728C7.75014 16.0312 7.75014 15.8888 7.75014 15.75C7.75147 14.2297 8.17229 12.7393 8.96626 11.4428C9.76023 10.1463 10.8966 9.09404 12.2501 8.40188ZM16.0001 6C15.8012 6 15.6105 6.07902 15.4698 6.21967C15.3292 6.36032 15.2501 6.55109 15.2501 6.75V15.3581L7.8617 19.6622C7.77596 19.7119 7.70093 19.7781 7.64092 19.857C7.58092 19.9358 7.53715 20.0258 7.51213 20.1217C7.48711 20.2176 7.48134 20.3175 7.49516 20.4156C7.50898 20.5138 7.54211 20.6082 7.59264 20.6934C8.45861 22.1656 9.69611 23.3844 11.1813 24.228C12.6664 25.0715 14.3471 25.5101 16.055 25.4998C17.7629 25.4896 19.4382 25.0309 20.9131 24.1696C22.388 23.3083 23.6108 22.0747 24.4591 20.5922C25.3073 19.1098 25.7513 17.4305 25.7465 15.7226C25.7417 14.0146 25.2883 12.3379 24.4317 10.8602C23.5751 9.38257 22.3454 8.15586 20.8657 7.30289C19.3859 6.44993 17.7081 6.00064 16.0001 6ZM16.0001 24C14.6909 23.9965 13.401 23.6831 12.2361 23.0854C11.0712 22.4877 10.0644 21.6227 9.29795 20.5613L16.378 16.4363C16.4919 16.3705 16.5865 16.2759 16.6523 16.1621C16.7181 16.0482 16.7528 15.919 16.753 15.7875V7.53375C18.8683 7.72567 20.8282 8.7261 22.2245 10.3268C23.6208 11.9274 24.3459 14.0049 24.2489 16.1268C24.1519 18.2487 23.2402 20.2513 21.7037 21.7179C20.1672 23.1845 18.1242 24.0019 16.0001 24Z" fill="#033839"/>
</svg>
