<svg width="48" height="48" viewBox="0 0 48 48" fill="none" xmlns="http://www.w3.org/2000/svg">
<rect width="48" height="48" rx="24" fill="#DBF9F7"/>
<path d="M37 20H11L24 12L37 20Z" fill="#9EEEE6"/>
<path d="M11 21H14V29H12C11.7348 29 11.4804 29.1053 11.2929 29.2929C11.1054 29.4804 11 29.7348 11 30C11 30.2652 11.1054 30.5196 11.2929 30.7071C11.4804 30.8946 11.7348 31 12 31H36C36.2652 31 36.5196 30.8946 36.7071 30.7071C36.8946 30.5196 37 30.2652 37 30C37 29.7348 36.8946 29.4804 36.7071 29.2929C36.5196 29.1053 36.2652 29 36 29H34V21H37C37.2176 20.9998 37.4292 20.9286 37.6026 20.7973C37.7761 20.6659 37.902 20.4816 37.9612 20.2722C38.0205 20.0629 38.0098 19.8399 37.9308 19.6371C37.8519 19.4344 37.709 19.2629 37.5238 19.1487L24.5238 11.1487C24.3662 11.0519 24.1849 11.0006 24 11.0006C23.8151 11.0006 23.6338 11.0519 23.4762 11.1487L10.4762 19.1487C10.291 19.2629 10.1481 19.4344 10.0692 19.6371C9.99021 19.8399 9.97955 20.0629 10.0388 20.2722C10.098 20.4816 10.2239 20.6659 10.3974 20.7973C10.5708 20.9286 10.7824 20.9998 11 21ZM16 21H20V29H16V21ZM26 21V29H22V21H26ZM32 29H28V21H32V29ZM24 13.1737L33.4675 19H14.5325L24 13.1737ZM39 34C39 34.2652 38.8946 34.5196 38.7071 34.7071C38.5196 34.8946 38.2652 35 38 35H10C9.73478 35 9.48043 34.8946 9.29289 34.7071C9.10536 34.5196 9 34.2652 9 34C9 33.7348 9.10536 33.4804 9.29289 33.2929C9.48043 33.1053 9.73478 33 10 33H38C38.2652 33 38.5196 33.1053 38.7071 33.2929C38.8946 33.4804 39 33.7348 39 34Z" fill="#033839"/>
</svg>
