<svg width="32" height="32" viewBox="0 0 32 32" fill="none" xmlns="http://www.w3.org/2000/svg">
<rect width="32" height="32" rx="16" fill="#D1EFF3"/>
<path d="M24.6253 19.8523L16.0003 24.8819L7.3753 19.8523C7.20452 19.7672 7.00777 19.7505 6.82508 19.8054C6.64239 19.8603 6.4875 19.9828 6.39193 20.1479C6.29635 20.313 6.26729 20.5083 6.31064 20.6941C6.354 20.8799 6.46652 21.0421 6.6253 21.1479L15.6253 26.3979C15.74 26.4648 15.8704 26.5 16.0031 26.5C16.1359 26.5 16.2662 26.4648 16.3809 26.3979L25.3809 21.1479C25.4674 21.099 25.5432 21.0334 25.6041 20.9549C25.665 20.8765 25.7097 20.7867 25.7356 20.6908C25.7615 20.5949 25.7681 20.4949 25.7551 20.3964C25.742 20.2979 25.7095 20.2031 25.6595 20.1173C25.6094 20.0315 25.5429 19.9565 25.4636 19.8966C25.3843 19.8368 25.294 19.7932 25.1978 19.7686C25.1016 19.7439 25.0014 19.7386 24.9031 19.753C24.8049 19.7674 24.7104 19.8011 24.6253 19.8523Z" fill="#033839"/>
<path d="M24.6253 15.3523L16.0003 20.3819L7.3753 15.3523C7.20452 15.2672 7.00777 15.2505 6.82508 15.3054C6.64239 15.3603 6.4875 15.4828 6.39193 15.6479C6.29635 15.813 6.26729 16.0083 6.31064 16.1941C6.354 16.3799 6.46652 16.5421 6.6253 16.6479L15.6253 21.8979C15.74 21.9648 15.8704 22 16.0031 22C16.1359 22 16.2662 21.9648 16.3809 21.8979L25.3809 16.6479C25.4674 16.599 25.5432 16.5334 25.6041 16.4549C25.665 16.3765 25.7097 16.2867 25.7356 16.1908C25.7615 16.0949 25.7681 15.9949 25.7551 15.8964C25.742 15.7979 25.7095 15.7031 25.6595 15.6173C25.6094 15.5315 25.5429 15.4565 25.4636 15.3966C25.3843 15.3368 25.294 15.2932 25.1978 15.2686C25.1016 15.2439 25.0014 15.2386 24.9031 15.253C24.8049 15.2674 24.7104 15.3011 24.6253 15.3523Z" fill="#033839"/>
<path d="M6.62499 12.1477L15.625 17.3977C15.7397 17.4646 15.87 17.4999 16.0028 17.4999C16.1356 17.4999 16.2659 17.4646 16.3806 17.3977L25.3806 12.1477C25.4938 12.0817 25.5878 11.9871 25.653 11.8735C25.7183 11.7598 25.7527 11.631 25.7527 11.4999C25.7527 11.3688 25.7183 11.2401 25.653 11.1264C25.5878 11.0127 25.4938 10.9182 25.3806 10.8521L16.3806 5.60211C16.2659 5.53524 16.1356 5.5 16.0028 5.5C15.87 5.5 15.7397 5.53524 15.625 5.60211L6.62499 10.8521C6.51177 10.9182 6.41784 11.0127 6.35256 11.1264C6.28728 11.2401 6.25293 11.3688 6.25293 11.4999C6.25293 11.631 6.28728 11.7598 6.35256 11.8735C6.41784 11.9871 6.51177 12.0817 6.62499 12.1477Z" fill="#033839"/>
</svg>
