<svg width="32" height="32" viewBox="0 0 32 32" fill="none" xmlns="http://www.w3.org/2000/svg">
<rect width="32" height="32" rx="16" fill="#DEE1E5" fill-opacity="0.16"/>
<path d="M27.1751 9H23.3747C22.7734 9 22.2442 9.40412 22.0518 10.0103L20.8492 13.9252C20.4763 15.1249 19.7668 15.9331 18.0109 15.9331H15.5455L17.3254 10.1366C17.4938 9.56829 17.0969 9 16.5316 9H12.7313C12.1299 9 11.6008 9.40412 11.4083 10.0103L10.2057 13.9252C9.83286 15.1249 9.1233 15.9331 7.36743 15.9331H4L10.9634 22.5379C11.8894 23.4093 13.3566 22.9926 13.7415 21.7549L15.329 16.5898L21.6068 22.5379C22.5329 23.4093 24.0001 22.9926 24.385 21.7549L26.1769 15.9331L27.9568 10.1492C28.1372 9.58092 27.7283 9 27.1751 9Z" fill="#888D95"/>
</svg>
