<svg width="48" height="48" viewBox="0 0 48 48" fill="none" xmlns="http://www.w3.org/2000/svg">
<rect width="48" height="48" rx="24" fill="#DBF9F7"/>
<path d="M35.9925 29.7605C35.7983 31.2118 35.0836 32.5432 33.9813 33.507C32.8791 34.4709 31.4642 35.0016 30 35.0005C25.4913 35.0005 21.1673 33.2094 17.9792 30.0213C14.7911 26.8332 13 22.5091 13 18.0005C12.9989 16.5362 13.5296 15.1214 14.4935 14.0191C15.4573 12.9169 16.7887 12.2022 18.24 12.008C18.4545 11.9825 18.6716 12.0272 18.8586 12.1353C19.0456 12.2435 19.1926 12.4093 19.2775 12.608L21.9188 18.508C21.9836 18.6595 22.0101 18.8247 21.9957 18.9889C21.9813 19.1532 21.9265 19.3113 21.8363 19.4492L19.165 22.6255C19.0702 22.7684 19.0142 22.9336 19.0024 23.1047C18.9906 23.2758 19.0233 23.4471 19.0975 23.6017C20.1313 25.718 22.3188 27.8792 24.4413 28.903C24.5967 28.9768 24.7688 29.0089 24.9404 28.9959C25.112 28.983 25.2773 28.9255 25.42 28.8292L28.545 26.1667C28.6835 26.0746 28.8428 26.0184 29.0084 26.0033C29.1741 25.9883 29.3409 26.0148 29.4938 26.0805L35.3888 28.7217C35.5883 28.8061 35.7551 28.953 35.864 29.1403C35.9729 29.3276 36.018 29.5453 35.9925 29.7605Z" fill="#9EEEE6"/>
<path d="M35.7963 27.8072L29.9075 25.1685L29.8913 25.161C29.5856 25.0302 29.2521 24.9778 28.921 25.0083C28.5899 25.0389 28.2716 25.1515 27.995 25.336C27.9624 25.3575 27.9311 25.3809 27.9013 25.406L24.8588 27.9997C22.9313 27.0635 20.9413 25.0885 20.005 23.186L22.6025 20.0972C22.6275 20.066 22.6513 20.0347 22.6738 20.001C22.8543 19.7251 22.9638 19.4089 22.9926 19.0805C23.0214 18.752 22.9686 18.4216 22.8388 18.1185V18.1035L20.1925 12.2047C20.0209 11.8088 19.7259 11.479 19.3515 11.2645C18.9771 11.0501 18.5433 10.9624 18.115 11.0147C16.4212 11.2376 14.8665 12.0695 13.7412 13.3549C12.6159 14.6403 11.9969 16.2914 12 17.9997C12 27.9247 20.075 35.9997 30 35.9997C31.7084 36.0028 33.3595 35.3839 34.6449 34.2586C35.9303 33.1333 36.7621 31.5785 36.985 29.8847C37.0374 29.4566 36.95 29.0229 36.7357 28.6485C36.5215 28.2741 36.1919 27.979 35.7963 27.8072ZM30 33.9997C25.758 33.9951 21.691 32.3079 18.6914 29.3083C15.6918 26.3088 14.0046 22.2418 14 17.9997C13.9953 16.7791 14.4351 15.5985 15.2372 14.6784C16.0393 13.7583 17.1489 13.1616 18.3588 12.9997C18.3583 13.0047 18.3583 13.0098 18.3588 13.0147L20.9838 18.8897L18.4 21.9822C18.3738 22.0124 18.35 22.0446 18.3288 22.0785C18.1407 22.3671 18.0303 22.6995 18.0084 23.0433C17.9865 23.3872 18.0538 23.7308 18.2038 24.041C19.3363 26.3572 21.67 28.6735 24.0113 29.8047C24.3237 29.9533 24.6694 30.0183 25.0144 29.9933C25.3595 29.9683 25.6922 29.8543 25.98 29.6622C26.0121 29.6406 26.043 29.6173 26.0725 29.5922L29.1113 26.9997L34.9863 29.631C34.9863 29.631 34.9963 29.631 35 29.631C34.8402 30.8426 34.2444 31.9544 33.3241 32.7585C32.4038 33.5626 31.2221 34.0039 30 33.9997Z" fill="#033839"/>
</svg>
