<svg width="48" height="48" viewBox="0 0 48 48" fill="none" xmlns="http://www.w3.org/2000/svg">
<rect width="48" height="48" rx="24" fill="#DBF9F7"/>
<path d="M35 22.5863V35.0001H27V27.0001H21V35.0001H13V22.5863L23.2925 12.2926C23.3854 12.1996 23.4957 12.1258 23.6171 12.0755C23.7385 12.0252 23.8686 11.9993 24 11.9993C24.1314 11.9993 24.2615 12.0252 24.3829 12.0755C24.5043 12.1258 24.6146 12.1996 24.7075 12.2926L35 22.5863Z" fill="#9EEEE6"/>
<path d="M38 34H36V25L36.2925 25.2925C36.4805 25.4801 36.7353 25.5854 37.0009 25.5851C37.2665 25.5849 37.5211 25.4792 37.7087 25.2912C37.8964 25.1032 38.0017 24.8484 38.0014 24.5828C38.0012 24.3172 37.8955 24.0626 37.7075 23.875L25.4137 11.585C25.0387 11.2102 24.5302 10.9996 24 10.9996C23.4698 10.9996 22.9613 11.2102 22.5863 11.585L10.2925 23.875C10.105 24.0626 9.99977 24.317 9.99989 24.5823C10 24.8475 10.1055 25.1019 10.2931 25.2893C10.4808 25.4768 10.7352 25.5821 11.0004 25.5819C11.2657 25.5818 11.52 25.4763 11.7075 25.2887L12 25V34H10C9.73478 34 9.48043 34.1053 9.29289 34.2928C9.10536 34.4804 9 34.7347 9 35C9 35.2652 9.10536 35.5195 9.29289 35.7071C9.48043 35.8946 9.73478 36 10 36H38C38.2652 36 38.5196 35.8946 38.7071 35.7071C38.8946 35.5195 39 35.2652 39 35C39 34.7347 38.8946 34.4804 38.7071 34.2928C38.5196 34.1053 38.2652 34 38 34ZM14 23L24 13L34 23V34H28V27C28 26.7347 27.8946 26.4804 27.7071 26.2928C27.5196 26.1053 27.2652 26 27 26H21C20.7348 26 20.4804 26.1053 20.2929 26.2928C20.1054 26.4804 20 26.7347 20 27V34H14V23ZM26 34H22V28H26V34Z" fill="#033839"/>
</svg>
