<svg width="32" height="32" viewBox="0 0 32 32" fill="none" xmlns="http://www.w3.org/2000/svg">
<rect width="32" height="32" rx="16" fill="#DBF9F7"/>
<path d="M22.875 13.5V22.25C22.875 22.4158 22.8092 22.5747 22.6919 22.6919C22.5747 22.8092 22.4158 22.875 22.25 22.875H9.75C9.58424 22.875 9.42527 22.8092 9.30806 22.6919C9.19085 22.5747 9.125 22.4158 9.125 22.25V13.5C9.125 13.3342 9.19085 13.1753 9.30806 13.0581C9.42527 12.9408 9.58424 12.875 9.75 12.875H22.25C22.4158 12.875 22.5747 12.9408 22.6919 13.0581C22.8092 13.1753 22.875 13.3342 22.875 13.5Z" fill="#9EEEE6"/>
<path d="M22.25 12.25H19.75V10.375C19.75 9.38044 19.3549 8.42661 18.6517 7.72335C17.9484 7.02009 16.9946 6.625 16 6.625C15.0054 6.625 14.0516 7.02009 13.3483 7.72335C12.6451 8.42661 12.25 9.38044 12.25 10.375V12.25H9.75C9.41848 12.25 9.10054 12.3817 8.86612 12.6161C8.6317 12.8505 8.5 13.1685 8.5 13.5V22.25C8.5 22.5815 8.6317 22.8995 8.86612 23.1339C9.10054 23.3683 9.41848 23.5 9.75 23.5H22.25C22.5815 23.5 22.8995 23.3683 23.1339 23.1339C23.3683 22.8995 23.5 22.5815 23.5 22.25V13.5C23.5 13.1685 23.3683 12.8505 23.1339 12.6161C22.8995 12.3817 22.5815 12.25 22.25 12.25ZM13.5 10.375C13.5 9.71196 13.7634 9.07607 14.2322 8.60723C14.7011 8.13839 15.337 7.875 16 7.875C16.663 7.875 17.2989 8.13839 17.7678 8.60723C18.2366 9.07607 18.5 9.71196 18.5 10.375V12.25H13.5V10.375ZM22.25 22.25H9.75V13.5H22.25V22.25ZM16.9375 17.875C16.9375 18.0604 16.8825 18.2417 16.7795 18.3958C16.6765 18.55 16.5301 18.6702 16.3588 18.7411C16.1875 18.8121 15.999 18.8307 15.8171 18.7945C15.6352 18.7583 15.4682 18.669 15.3371 18.5379C15.206 18.4068 15.1167 18.2398 15.0805 18.0579C15.0443 17.876 15.0629 17.6875 15.1339 17.5162C15.2048 17.3449 15.325 17.1985 15.4792 17.0955C15.6333 16.9925 15.8146 16.9375 16 16.9375C16.2486 16.9375 16.4871 17.0363 16.6629 17.2121C16.8387 17.3879 16.9375 17.6264 16.9375 17.875Z" fill="#033839"/>
</svg>
