<svg width="230" height="28" viewBox="0 0 230 28" fill="none" xmlns="http://www.w3.org/2000/svg">
<g clip-path="url(#clip0_1_2600)">
<path d="M32.205 6.38718C26.125 6.38718 22.8317 10.7028 22.8317 17.1936C22.8317 23.6843 26.0933 28 32.205 28C38.285 28 41.5783 23.6843 41.5783 17.1936C41.5783 10.7028 38.3167 6.38718 32.205 6.38718ZM32.205 25.0308C28.4683 25.0308 26.695 21.9581 26.695 17.1936C26.695 12.4291 28.4683 9.35635 32.205 9.35635C35.9417 9.35635 37.715 12.4291 37.715 17.1936C37.715 21.9581 35.9417 25.0308 32.205 25.0308ZM82.3967 6.38718C76.3167 6.38718 73.0233 10.7028 73.0233 17.1936C73.0233 23.6843 76.285 28 82.3967 28C88.4767 28 91.77 23.6843 91.77 17.1936C91.77 10.7028 88.4767 6.38718 82.3967 6.38718ZM82.3967 25.0308C78.66 25.0308 76.8867 21.9581 76.8867 17.1936C76.8867 12.4291 78.66 9.35635 82.3967 9.35635C86.1333 9.35635 87.9067 12.4291 87.9067 17.1936C87.9067 21.9581 86.1333 25.0308 82.3967 25.0308ZM155.61 6.35265C149.245 6.35265 145.857 11.2552 145.857 17.1936C145.857 23.0629 149.277 28 155.927 28C161.595 28 164.065 24.4784 164.92 21.1985H160.107C159.695 22.7522 158.618 24.3403 155.8 24.3403C152.538 24.3403 150.765 21.6473 150.733 18.471H165.173V17.3662C165.11 11.0136 161.912 6.35265 155.61 6.35265ZM150.702 14.7768C150.987 12.1874 152.633 10.0123 155.61 10.0123C158.682 10.0123 160.17 12.36 160.297 14.7768H150.702ZM16.245 11.566H3.86333V0H0V27.6893H3.86333V14.9494H16.245V27.6893H20.1083V0H16.245V11.566ZM220.4 6.35265C217.772 6.35265 215.935 7.35388 214.7 9.11467V0H209.697V27.6893H214.7V15.5019C214.7 12.1874 216.157 10.1159 218.943 10.1159C221.603 10.1159 222.997 11.8767 222.997 15.0875V27.6893H228V14.8804C228 9.49445 225.118 6.35265 220.4 6.35265ZM203.775 0H198.772V6.6979H194.718V11.0826H198.772V27.6547H203.775V11.0826H207.828V6.66338H203.775V0ZM187.847 27.6893H192.85V0H187.847V27.6893ZM184.427 23.9605V13.3958C184.427 8.73489 181.45 6.35265 176.098 6.35265C170.113 6.35265 167.517 9.59803 167.073 13.1887H171.887C172.077 11.3933 173.47 10.0123 175.845 10.0123C178.03 10.0123 179.582 10.9445 179.582 13.2577C179.582 14.2935 179.012 14.6387 177.808 14.8459L173.027 15.5709C168.878 16.1924 166.313 17.8841 166.313 21.7164C166.313 25.5487 169.448 27.9655 173.787 27.9655C176.953 27.9655 178.727 26.688 179.677 25.2725V25.4797C179.708 26.2047 179.772 26.9297 179.898 27.6547H184.743V27.3095C184.49 26.2392 184.395 25.0999 184.427 23.9605ZM179.613 19.9211C179.613 22.5795 178.125 24.5129 175.243 24.5129C173.09 24.5129 171.317 23.5117 171.317 21.4747C171.317 19.7485 172.615 19.1961 174.515 18.8163L177.713 18.0912C178.727 17.8841 179.36 17.5734 179.613 17.1936V19.9211ZM142.025 0L137.623 21.9926L133 0H132.968H126.635H126.603L122.012 21.9926L117.61 0H112.227L119.067 27.6893H125.242L129.833 6.2836L134.425 27.6893H140.6L147.44 0H142.025ZM104.152 6.38718C101.302 6.38718 99.3383 7.59556 98.135 9.73613V6.66338H94.2717V27.6547H98.135V15.5709C98.135 11.7386 99.7817 9.25277 103.075 9.25277C106.147 9.25277 107.73 11.3588 107.73 15.053V27.6547H111.593V14.8804C111.593 9.49445 108.87 6.38718 104.152 6.38718ZM68.685 0H64.8217V6.6979H60.6417V9.87423H64.8217V27.6893H68.685V9.87423H72.865V6.6979H68.685V0ZM55.86 6.66338L50.6983 14.5351L45.5367 6.66338H41.4833L48.3867 16.7448L41.4833 27.6547H45.5367L50.6983 19.127L55.86 27.6547H59.8817L53.01 16.7448L59.8817 6.66338H55.86Z" fill="white"/>
</g>
<defs>
<clipPath id="clip0_1_2600">
<rect width="230" height="28" fill="white"/>
</clipPath>
</defs>
</svg>
