<svg width="32" height="32" viewBox="0 0 32 32" fill="none" xmlns="http://www.w3.org/2000/svg">
<rect x="5.5" y="5.5" width="21" height="21" rx="10.5" fill="#EBF2F1"/>
<rect x="5.5" y="5.5" width="21" height="21" rx="10.5" stroke="#EBF2F1"/>
<path d="M21.7848 11.5903C22.0426 11.8482 22.1874 12.1978 22.1874 12.5625C22.1874 12.9271 22.0426 13.2767 21.7848 13.5346L14.9098 20.4096C14.652 20.6673 14.3023 20.8122 13.9377 20.8122C13.5731 20.8122 13.2234 20.6673 12.9656 20.4096L10.2156 17.6596C9.9651 17.4002 9.82651 17.0529 9.82964 16.6924C9.83277 16.3319 9.97738 15.987 10.2323 15.7321C10.4873 15.4771 10.8321 15.3325 11.1926 15.3294C11.5532 15.3263 11.9005 15.4649 12.1598 15.7153L13.9377 17.4932L19.8406 11.5903C20.0984 11.3326 20.4481 11.1877 20.8127 11.1877C21.1773 11.1877 21.527 11.3326 21.7848 11.5903Z" fill="#033839"/>
</svg>
