<svg width="32" height="32" viewBox="0 0 32 32" fill="none" xmlns="http://www.w3.org/2000/svg">
<path d="M16.6665 4.33337V8.33337C16.6665 8.59859 16.5611 8.85294 16.3736 9.04048C16.1861 9.22802 15.9317 9.33337 15.6665 9.33337C15.4013 9.33337 15.1469 9.22802 14.9594 9.04048C14.7719 8.85294 14.6665 8.59859 14.6665 8.33337V4.33337C14.6665 4.06816 14.7719 3.8138 14.9594 3.62627C15.1469 3.43873 15.4013 3.33337 15.6665 3.33337C15.9317 3.33337 16.1861 3.43873 16.3736 3.62627C16.5611 3.8138 16.6665 4.06816 16.6665 4.33337ZM27.6665 15.3334H23.6665C23.4013 15.3334 23.1469 15.4387 22.9594 15.6263C22.7719 15.8138 22.6665 16.0682 22.6665 16.3334C22.6665 16.5986 22.7719 16.8529 22.9594 17.0405C23.1469 17.228 23.4013 17.3334 23.6665 17.3334H27.6665C27.9317 17.3334 28.1861 17.228 28.3736 17.0405C28.5611 16.8529 28.6665 16.5986 28.6665 16.3334C28.6665 16.0682 28.5611 15.8138 28.3736 15.6263C28.1861 15.4387 27.9317 15.3334 27.6665 15.3334ZM22.0303 21.2834C21.8412 21.1038 21.5894 21.0051 21.3287 21.0084C21.0679 21.0118 20.8188 21.1168 20.6344 21.3012C20.45 21.4856 20.3449 21.7348 20.3416 21.9956C20.3382 22.2563 20.4369 22.5081 20.6165 22.6971L23.444 25.5259C23.6316 25.7135 23.8861 25.8189 24.1515 25.8189C24.4169 25.8189 24.6714 25.7135 24.859 25.5259C25.0466 25.3382 25.1521 25.0837 25.1521 24.8184C25.1521 24.553 25.0466 24.2985 24.859 24.1109L22.0303 21.2834ZM15.6665 23.3334C15.4013 23.3334 15.1469 23.4387 14.9594 23.6263C14.7719 23.8138 14.6665 24.0682 14.6665 24.3334V28.3334C14.6665 28.5986 14.7719 28.8529 14.9594 29.0405C15.1469 29.228 15.4013 29.3334 15.6665 29.3334C15.9317 29.3334 16.1861 29.228 16.3736 29.0405C16.5611 28.8529 16.6665 28.5986 16.6665 28.3334V24.3334C16.6665 24.0682 16.5611 23.8138 16.3736 23.6263C16.1861 23.4387 15.9317 23.3334 15.6665 23.3334ZM9.30275 21.2834L6.474 24.1109C6.28636 24.2985 6.18095 24.553 6.18095 24.8184C6.18095 25.0837 6.28636 25.3382 6.474 25.5259C6.66164 25.7135 6.91614 25.8189 7.1815 25.8189C7.44687 25.8189 7.70136 25.7135 7.889 25.5259L10.7165 22.6971C10.8961 22.5081 10.9948 22.2563 10.9914 21.9956C10.9881 21.7348 10.883 21.4856 10.6986 21.3012C10.5142 21.1168 10.2651 21.0118 10.0043 21.0084C9.74357 21.0051 9.49182 21.1038 9.30275 21.2834ZM8.6665 16.3334C8.6665 16.0682 8.56115 15.8138 8.37361 15.6263C8.18607 15.4387 7.93172 15.3334 7.6665 15.3334H3.6665C3.40129 15.3334 3.14693 15.4387 2.9594 15.6263C2.77186 15.8138 2.6665 16.0682 2.6665 16.3334C2.6665 16.5986 2.77186 16.8529 2.9594 17.0405C3.14693 17.228 3.40129 17.3334 3.6665 17.3334H7.6665C7.93172 17.3334 8.18607 17.228 8.37361 17.0405C8.56115 16.8529 8.6665 16.5986 8.6665 16.3334ZM7.889 7.14087C7.70136 6.95323 7.44687 6.84782 7.1815 6.84782C6.91614 6.84782 6.66164 6.95323 6.474 7.14087C6.28636 7.32851 6.18095 7.58301 6.18095 7.84837C6.18095 8.11374 6.28636 8.36823 6.474 8.55587L9.30275 11.3834C9.49182 11.563 9.74357 11.6617 10.0043 11.6583C10.2651 11.655 10.5142 11.5499 10.6986 11.3655C10.883 11.1811 10.9881 10.932 10.9914 10.6712C10.9948 10.4104 10.8961 10.1587 10.7165 9.96962L7.889 7.14087Z" fill="#EBF2F1"/>
</svg>
