<svg width="44" height="44" viewBox="0 0 44 44" fill="none" xmlns="http://www.w3.org/2000/svg">
<rect width="44" height="44" rx="22" fill="#3C595B"/>
<path d="M35 22.0001V32.0001C35 33.3262 34.4732 34.5979 33.5355 35.5356C32.5979 36.4733 31.3261 37.0001 30 37.0001H23C22.7348 37.0001 22.4804 36.8947 22.2929 36.7072C22.1054 36.5196 22 36.2653 22 36.0001C22 35.7349 22.1054 35.4805 22.2929 35.293C22.4804 35.1054 22.7348 35.0001 23 35.0001H30C30.7957 35.0001 31.5587 34.684 32.1213 34.1214C32.6839 33.5588 33 32.7957 33 32.0001H30C29.2044 32.0001 28.4413 31.684 27.8787 31.1214C27.3161 30.5588 27 29.7957 27 29.0001V24.0001C27 23.2044 27.3161 22.4414 27.8787 21.8788C28.4413 21.3161 29.2044 21.0001 30 21.0001H32.9563C32.767 18.9212 31.9902 16.9392 30.7165 15.2854C29.4428 13.6316 27.7248 12.3743 25.7633 11.6605C23.8017 10.9466 21.6775 10.8057 19.6388 11.254C17.6001 11.7024 15.7311 12.7216 14.25 14.1926C12.4083 16.01 11.2724 18.4227 11.045 21.0001H14C14.7957 21.0001 15.5587 21.3161 16.1213 21.8788C16.6839 22.4414 17 23.2044 17 24.0001V29.0001C17 29.7957 16.6839 30.5588 16.1213 31.1214C15.5587 31.684 14.7957 32.0001 14 32.0001H12C11.2044 32.0001 10.4413 31.684 9.87868 31.1214C9.31607 30.5588 9 29.7957 9 29.0001V22.0001C9.0028 19.4249 9.76953 16.9085 11.2031 14.7694C12.6367 12.6302 14.6728 10.9644 17.0535 9.98289C19.4342 9.00136 22.0526 8.74822 24.5773 9.25549C27.102 9.76276 29.4194 11.0076 31.2363 12.8326C32.4358 14.038 33.3857 15.4682 34.0316 17.0413C34.6774 18.6144 35.0065 20.2995 35 22.0001Z" fill="#B8F4EF"/>
</svg>
